<svg xmlns="http://www.w3.org/2000/svg" width="33" height="38" viewBox="0 0 76.793243 76.295426">
  <g transform="translate(-109.28789,-60.722253)">
    <path
      style="opacity:1;fill:#ffffff;fill-opacity:1;stroke:none;stroke-width:5;stroke-linecap:round;stroke-linejoin:round;stroke-miterlimit:4;stroke-dasharray:none;stroke-dashoffset:0;stroke-opacity:1"
      d="m 173.76353,60.722253 a 12.317703,12.317703 0 0 0 -12.31758,12.317584 12.317703,12.317703 0 0 0 0.46767,3.352271 l -30.65549,15.941146 a 12.317704,12.317704 0 0 0 -9.65264,-4.665874 12.317704,12.317704 0 0 0 -12.3176,12.317597 12.317704,12.317704 0 0 0 12.3176,12.317593 12.317704,12.317704 0 0 0 10.21333,-5.43946 l 30.11444,17.44184 a 12.317704,12.317704 0 0 0 -0.48731,3.39513 12.317704,12.317704 0 0 0 12.31758,12.3176 12.317704,12.317704 0 0 0 12.3176,-12.3176 12.317704,12.317704 0 0 0 -12.3176,-12.31813 12.317704,12.317704 0 0 0 -9.5038,4.49173 L 133.71534,102.1838 a 12.317704,12.317704 0 0 0 0.20774,-2.198823 12.317704,12.317704 0 0 0 -0.42323,-3.182249 l 30.72733,-15.977817 a 12.317703,12.317703 0 0 0 9.53635,4.533053 12.317703,12.317703 0 0 0 12.3176,-12.318127 12.317703,12.317703 0 0 0 -12.3176,-12.317584 z"/>
  </g>
</svg>